<svg width="454" height="575" viewBox="0 0 454 575" version="2.0" xmlns="http://www.w3.org/2000/svg" xmlns:xlink="http://www.w3.org/1999/xlink" xmlns:figma="http://www.figma.com/figma/ns">
<title>Rectangle 7</title>
<desc>Created using Figma 0.90</desc>
<g id="Canvas" transform="translate(211 -1509)" figma:type="canvas">
<g id="Rectangle 7" style="mix-blend-mode:normal;" figma:type="rounded-rectangle">
<mask id="mask0_outline_ins">
<use xlink:href="#path0_fill" fill="white" transform="matrix(1 0 0 1 -212 1509)"/>
</mask>
<g mask="url(#mask0_outline_ins)">
<use xlink:href="#path1_stroke_2x" transform="matrix(1 0 0 1 -212 1509)" fill="#0DEC10" style="mix-blend-mode:normal;"/>
</g>
</g>
</g>
<defs>
<path id="path0_fill" d="M 0 0L 455 0L 455 575L 0 575L 0 0Z"/>
<path id="path1_stroke_2x" d="M 0 0L 0 -5L -5 -5L -5 0L 0 0ZM 455 0L 460 0L 460 -5L 455 -5L 455 0ZM 455 575L 455 580L 460 580L 460 575L 455 575ZM 0 575L -5 575L -5 580L 0 580L 0 575ZM 0 5L 455 5L 455 -5L 0 -5L 0 5ZM 450 0L 450 575L 460 575L 460 0L 450 0ZM 455 570L 0 570L 0 580L 455 580L 455 570ZM 5 575L 5 0L -5 0L -5 575L 5 575Z"/>
</defs>
</svg>
