<svg width="375" height="45" viewBox="0 0 375 45" version="2.0" xmlns="http://www.w3.org/2000/svg" xmlns:xlink="http://www.w3.org/1999/xlink" xmlns:figma="http://www.figma.com/figma/ns">
<title>Rectangle 7</title>
<desc>Created using Figma 0.90</desc>
<g id="Canvas" transform="translate(211 -1509)" figma:type="canvas">
<g id="Rectangle 7" style="mix-blend-mode:normal;" figma:type="rounded-rectangle">
<mask id="mask0_outline_ins">
<use xlink:href="#path0_fill" fill="white" transform="matrix(1 0 0 1 -211 1509)"/>
</mask>
<g mask="url(#mask0_outline_ins)">
<use xlink:href="#path1_stroke_2x" transform="matrix(1 0 0 1 -211 1509)" fill="#ECED2B" style="mix-blend-mode:normal;"/>
</g>
</g>
</g>
<defs>
<path id="path0_fill" d="M 0 0L 375 0L 375 45L 0 45L 0 0Z"/>
<path id="path1_stroke_2x" d="M 0 0L 0 -5L -5 -5L -5 0L 0 0ZM 375 0L 380 0L 380 -5L 375 -5L 375 0ZM 375 45L 375 50L 380 50L 380 45L 375 45ZM 0 45L -5 45L -5 50L 0 50L 0 45ZM 0 5L 375 5L 375 -5L 0 -5L 0 5ZM 370 0L 370 45L 380 45L 380 0L 370 0ZM 375 40L 0 40L 0 50L 375 50L 375 40ZM 5 45L 5 0L -5 0L -5 45L 5 45Z"/>
</defs>
</svg>
