<svg width="952" height="1130" viewBox="0 0 952 1130" version="2.0" xmlns="http://www.w3.org/2000/svg" xmlns:xlink="http://www.w3.org/1999/xlink" xmlns:figma="http://www.figma.com/figma/ns">
<title>monocle_file</title>
<desc>Created using Figma 0.90</desc>
<g id="Canvas" transform="translate(-1136 -911)" figma:type="canvas">
<mask id="mask0_outline" mask-type="alpha">
<path d="M 1136 911L 2088 911L 2088 2041L 1136 2041L 1136 911Z" fill="#FFFFFF"/>
</mask>
<g id="monocle_file" style="mix-blend-mode:normal;" mask="url(#mask0_outline)" figma:type="frame">
<g id="Vector" style="mix-blend-mode:normal;" figma:type="vector">
<use xlink:href="#path0_fill" transform="translate(1233 967)" fill="#FFFFFF" style="mix-blend-mode:normal;"/>
<use xlink:href="#path1_stroke" transform="translate(1233 967)" style="mix-blend-mode:normal;"/>
</g>
<g id="Rectangle" style="mix-blend-mode:normal;" figma:type="rounded-rectangle">
<use xlink:href="#path2_fill" transform="translate(1351.53 1099.27)" fill="#E0E0E0" style="mix-blend-mode:normal;"/>
</g>
<g id="Rectangle" style="mix-blend-mode:normal;" figma:type="rounded-rectangle">
<use xlink:href="#path3_fill" transform="matrix(1 0 0 1 1351.53 1194.16)" fill="#E0E0E0" style="mix-blend-mode:normal;"/>
</g>
<g id="Rectangle" style="mix-blend-mode:normal;" figma:type="rounded-rectangle">
<use xlink:href="#path4_fill" transform="translate(1351.53 1289.04)" fill="#E0E0E0" style="mix-blend-mode:normal;"/>
</g>
<g id="Rectangle" style="mix-blend-mode:normal;" figma:type="rounded-rectangle">
<use xlink:href="#path5_fill" transform="translate(1351.53 1383.93)" fill="#E0E0E0" style="mix-blend-mode:normal;"/>
</g>
<g id="Rectangle" style="mix-blend-mode:normal;" figma:type="rounded-rectangle">
<use xlink:href="#path6_fill" transform="translate(1351.53 1573.71)" fill="#E0E0E0" style="mix-blend-mode:normal;"/>
</g>
<g id="Rectangle" style="mix-blend-mode:normal;" figma:type="rounded-rectangle">
<use xlink:href="#path7_fill" transform="translate(1351.53 1478.82)" fill="#E0E0E0" style="mix-blend-mode:normal;"/>
</g>
<g id="Rectangle" style="mix-blend-mode:normal;" figma:type="rounded-rectangle">
<use xlink:href="#path8_fill" transform="translate(1351.53 1668.59)" fill="#E0E0E0" style="mix-blend-mode:normal;"/>
</g>
<g id="Rectangle" style="mix-blend-mode:normal;" figma:type="rounded-rectangle">
<use xlink:href="#path9_fill" transform="translate(1351.53 1763.48)" fill="#E0E0E0" style="mix-blend-mode:normal;"/>
</g>
<g id="react_logo" style="mix-blend-mode:normal;" figma:type="group">
<g id="Layer 1" style="mix-blend-mode:normal;" figma:type="group">
<g id="Vector" style="mix-blend-mode:normal;" figma:type="vector">
<use xlink:href="#path10_fill" transform="matrix(1 0 0 1 1569.65 1401.38)" fill="#00D8FF" style="mix-blend-mode:normal;"/>
</g>
<g id="Vector" style="mix-blend-mode:normal;" figma:type="vector">
<use xlink:href="#path11_stroke" transform="matrix(1 0 0 1 1382.38 1358.69)" fill="#00D8FF" style="mix-blend-mode:normal;"/>
</g>
<g id="Vector" style="mix-blend-mode:normal;" figma:type="vector">
<use xlink:href="#path12_stroke" transform="matrix(1 0 0 1 1475.31 1247.16)" fill="#00D8FF" style="mix-blend-mode:normal;"/>
</g>
<g id="Vector" style="mix-blend-mode:normal;" figma:type="vector">
<use xlink:href="#path13_stroke" transform="matrix(1 0 0 1 1475.43 1247.61)" fill="#00D8FF" style="mix-blend-mode:normal;"/>
</g>
</g>
</g>
</g>
</g>
<defs>
<path id="path0_fill" d="M 0 0L 0 946L 760 946L 760 133.705L 626.389 0L 0 0Z"/>
<path id="path1_stroke" d="M 0 0L 0 -0.5L -0.5 -0.5L -0.5 0L 0 0ZM 0 946L -0.5 946L -0.5 946.5L 0 946.5L 0 946ZM 760 946L 760 946.5L 760.5 946.5L 760.5 946L 760 946ZM 760 133.705L 760.5 133.705L 760.5 133.498L 760.354 133.352L 760 133.705ZM 626.389 0L 626.743 -0.353428L 626.597 -0.5L 626.389 -0.5L 626.389 0ZM -0.5 0L -0.5 946L 0.5 946L 0.5 0L -0.5 0ZM 0 946.5L 760 946.5L 760 945.5L 0 945.5L 0 946.5ZM 760.5 946L 760.5 133.705L 759.5 133.705L 759.5 946L 760.5 946ZM 760.354 133.352L 626.743 -0.353428L 626.036 0.353428L 759.646 134.059L 760.354 133.352ZM 626.389 -0.5L 0 -0.5L 0 0.5L 626.389 0.5L 626.389 -0.5Z"/>
<path id="path2_fill" d="M 0 0L 465.482 0L 465.482 46.0061L 0 46.0061L 0 0Z"/>
<path id="path3_fill" d="M 0 0L 520.076 0L 520.076 46.0061L 0 46.0061L 0 0Z"/>
<path id="path4_fill" d="M 0 0L 439.622 0L 439.622 46.0061L 0 46.0061L 0 0Z"/>
<path id="path5_fill" d="M 0 0L 482.722 0L 482.722 46.0061L 0 46.0061L 0 0Z"/>
<path id="path6_fill" d="M 0 0L 520.076 0L 520.076 46.0061L 0 46.0061L 0 0Z"/>
<path id="path7_fill" d="M 0 0L 522.949 0L 522.949 46.0061L 0 46.0061L 0 0Z"/>
<path id="path8_fill" d="M 0 0L 287.335 0L 287.335 46.006L 0 46.006L 0 0Z"/>
<path id="path9_fill" d="M 0 0L 410.888 0L 410.888 46.0061L 0 46.0061L 0 0Z"/>
<path id="path10_fill" d="M 85.9 41.314C 85.9 64.1307 66.6702 82.628 42.95 82.628C 19.2298 82.628 0 64.1307 0 41.314C 0 18.4973 19.2298 0 42.95 0C 66.6702 0 85.9 18.4973 85.9 41.314Z"/>
<path id="path11_stroke" d="M 381.845 21.3352L 378.073 32.7268L 378.073 32.7268L 381.845 21.3352ZM 376.461 149.658L 380.105 161.092L 380.105 161.092L 376.461 149.658ZM 81.0003 149.519L 84.7484 138.12L 84.7483 138.119L 81.0003 149.519ZM 76.5518 21.728L 72.7365 10.3507L 72.7362 10.3508L 76.5518 21.728ZM 230.217 12C 286.999 11.9674 338.675 19.6334 378.073 32.7268L 385.618 9.94354C 344.232 -3.71454 288.767 -11.9674 230.217 -12L 230.217 12ZM 378.073 32.7268C 401.527 40.4549 419.286 49.5909 431.878 59.7744C 444.392 69.8182 448.434 78.3775 448.434 84L 472.434 84C 472.434 67.5025 461.515 52.7872 446.901 41.0575C 432.365 29.4675 410.83 18.3311 385.618 9.94352L 378.073 32.7268ZM 448.434 84C 448.434 90.0256 444.019 99.1904 430.596 109.82C 417.112 120.574 398.04 130.227 372.817 138.225L 380.105 161.092C 407.143 152.434 430.057 140.784 445.495 128.635C 460.993 116.362 472.434 101.026 472.434 84L 448.434 84ZM 372.817 138.225C 334.364 150.533 284.204 156.847 230.217 156.824L 230.217 180.824C 285.712 180.8 339.535 173.969 380.105 161.092L 372.817 138.225ZM 230.217 156.824C 174.787 156.844 123.527 150.934 84.7484 138.12L 77.2522 160.919C 118.369 174.373 173.4 180.803 230.217 180.824L 230.217 156.824ZM 84.7483 138.119C 60.424 130.167 42.1318 120.498 29.173 109.744C 16.2987 99.1385 12 89.9755 12 84L -12 84C -12 100.635 -1.07436 115.922 13.9135 128.268C 28.817 140.466 51.0249 152.25 77.2523 160.919L 84.7483 138.119ZM 12 84C 12 78.2986 15.9051 69.8144 27.9079 59.9364C 40.0665 49.8497 57.2804 40.8067 80.3673 33.1052L 72.7362 10.3508C 47.8408 18.7411 26.7788 29.8638 12.6571 41.405C -1.62042 53.155 -12 67.7609 -12 84L 12 84ZM 80.3671 33.1053C 119.892 19.8016 172.869 11.9676 230.217 12L 230.217 -12C 171.106 -11.9676 114.296 -3.53693 72.7365 10.3507L 80.3671 33.1053Z"/>
<path id="path12_stroke" d="M 61.2653 153.773L 50.9732 147.603L 50.9732 147.603L 61.2653 153.773ZM 156.228 38.0836L 148.526 28.882L 148.526 28.8821L 156.228 38.0836ZM 251.923 3.90298L 246.103 14.3967L 246.103 14.3967L 251.923 3.90298ZM 269.104 106.676L 280.838 109.189L 280.838 109.189L 269.104 106.676ZM 213.304 238.112L 223.596 244.283L 223.596 244.283L 213.304 238.112ZM 121.374 352.807L 113.651 343.622L 113.651 343.622L 121.374 352.807ZM 21.9034 387.571L 16.0821 398.064L 16.0825 398.064L 21.9034 387.571ZM 4.06654 292.673L 15.8394 294.997L 15.8394 294.997L 4.06654 292.673ZM 71.5573 159.943C 99.8559 112.672 132.496 73.5377 163.931 47.2851L 148.526 28.8821C 115.512 56.5805 80.2912 98.7714 50.9732 147.603L 71.5573 159.943ZM 163.931 47.2851C 182.59 31.6164 199.686 21.3871 215.166 15.9748C 230.437 10.5745 240.565 11.3248 246.103 14.3967L 257.744 -6.59069C 243.362 -14.569 225.055 -12.979 207.164 -6.6519C 189.484 -0.336754 168.693 12.0493 148.526 28.882L 163.931 47.2851ZM 246.103 14.3967C 251.863 17.592 257.821 25.9877 260.641 42.2124C 263.579 58.7247 262.752 79.2452 257.37 104.163L 280.838 109.189C 286.564 82.2396 287.526 57.1312 284.287 38.1026C 280.93 18.7865 272.744 1.72938 257.744 -6.59071L 246.103 14.3967ZM 257.37 104.163C 249.272 142.246 229.969 187.029 203.012 231.942L 223.596 244.283C 251.332 197.967 272.138 149.536 280.838 109.189L 257.37 104.163ZM 203.012 231.942C 175.369 278.093 144.518 317.755 113.651 343.622L 129.097 361.992C 161.802 334.407 195.163 291.665 223.596 244.283L 203.012 231.942ZM 113.651 343.622C 94.357 359.904 76.5123 370.311 60.3316 375.745C 44.3663 381.169 33.5705 380.32 27.7242 377.077L 16.0825 398.064C 30.5995 406.117 49.4279 404.796 68.0515 398.47C 86.4598 392.153 108.169 379.531 129.097 361.992L 113.651 343.622ZM 27.7246 377.077C 22.2612 374.046 16.6506 366.413 13.8008 351.732C 10.8037 336.656 11.2559 317.988 15.8394 294.997L -7.70629 290.349C -12.602 315.379 -13.1108 338.68 -9.75941 356.306C -6.26075 374.329 1.7867 390.134 16.0821 398.064L 27.7246 377.077ZM 15.8394 294.997C 23.5773 255.52 42.9182 207.642 71.5573 159.943L 50.9732 147.603C 21.4325 196.947 0.574195 248.675 -7.7063 290.349L 15.8394 294.997Z"/>
<path id="path13_stroke" d="M 61.2196 237.785L 50.9381 243.973L 50.9381 243.973L 61.2196 237.785ZM 4.44725 100.87L 16.2065 98.4776L 16.2064 98.4776L 4.44725 100.87ZM 21.4536 4.05048L 27.2917 14.5346L 27.2919 14.5345L 21.4536 4.05048ZM 122.598 41.0599L 114.805 50.1846L 114.805 50.1848L 122.598 41.0599ZM 213.112 153.202L 202.83 159.39L 202.83 159.39L 213.112 153.202ZM 270.504 287.093L 258.75 289.512L 258.75 289.512L 270.504 287.093ZM 252.137 387.35L 246.299 376.866L 246.299 376.866L 252.137 387.35ZM 157.757 354.821L 165.409 345.577L 165.409 345.577L 157.757 354.821ZM 71.5012 231.598C 43.0633 184.417 24.1394 137.733 16.2065 98.4776L -7.31195 103.261C 1.1605 144.659 21.5934 195.143 50.9381 243.973L 71.5012 231.598ZM 16.2064 98.4776C 11.4233 75.1724 10.7509 56.0017 13.5931 40.5111C 16.3126 25.3271 21.902 17.5358 27.2917 14.5346L 15.6156 -6.43366C 1.10337 1.64738 -6.75198 17.9719 -10.031 36.28C -13.1874 54.2816 -12.412 77.9792 -7.31194 103.261L 16.2064 98.4776ZM 27.2919 14.5345C 33.1919 11.2489 44.0532 10.4955 60.3099 16.3327C 76.7581 22.176 94.9923 33.2101 114.805 50.1846L 130.392 31.9351C 109.036 13.7482 87.0678 0.503122 68.4205 -6.25529C 49.5816 -13.0197 30.4545 -14.6971 15.6153 -6.43352L 27.2919 14.5345ZM 114.805 50.1848C 145.102 75.9895 175.836 114.487 202.83 159.39L 223.393 147.014C 195.535 100.776 162.346 59.2974 130.391 31.935L 114.805 50.1848ZM 202.83 159.39C 230.589 205.469 250.882 250.928 258.75 289.512L 282.258 284.675C 273.731 243.586 251.873 194.379 223.393 147.014L 202.83 159.39ZM 258.75 289.512C 263.767 313.647 264.228 333.522 261.057 349.605C 258.014 365.38 252.003 373.689 246.299 376.866L 257.975 397.834C 272.615 389.682 280.974 373.068 284.622 354.15C 288.143 335.539 287.615 310.951 282.258 284.675L 258.75 289.512ZM 246.299 376.866C 240.71 379.978 230.728 380.837 215.836 375.797C 200.647 370.721 183.887 360.925 165.409 345.577L 150.105 364.065C 170.145 380.601 190.705 392.565 208.142 398.531C 225.876 404.532 243.824 405.714 257.975 397.834L 246.299 376.866ZM 165.409 345.577C 133.676 319.376 100.166 279.295 71.5011 231.597L 50.9381 243.973C 80.6222 293.225 116.749 336.39 150.105 364.065L 165.409 345.577Z"/>
</defs>
</svg>
