<svg width="522" height="422" viewBox="0 0 522 422" version="2.0" xmlns="http://www.w3.org/2000/svg" xmlns:xlink="http://www.w3.org/1999/xlink" xmlns:figma="http://www.figma.com/figma/ns">
<title>React Tree Hierarchy (data)</title>
<desc>Created using Figma 0.90</desc>
<g id="Canvas" transform="translate(-334 34)" figma:type="canvas">
<mask id="mask0_outline" mask-type="alpha">
<path d="M 334 -34L 856 -34L 856 388L 334 388L 334 -34Z" fill="#FFFFFF"/>
</mask>
<g id="React Tree Hierarchy (data)" style="mix-blend-mode:normal;" mask="url(#mask0_outline)" figma:type="frame">
<g id="Line" style="mix-blend-mode:normal;" figma:type="vector">
<use xlink:href="#path0_stroke" transform="matrix(-0.739441 0.673222 -0.673222 -0.73944 609.092 69.0848)" fill="#FFFFFF" style="mix-blend-mode:normal;"/>
</g>
<g id="Line" style="mix-blend-mode:normal;" figma:type="vector">
<use xlink:href="#path1_stroke" transform="matrix(-0.73944 0.673222 -0.673222 -0.739441 483.43 218.83)" fill="#FFFFFF" style="mix-blend-mode:normal;"/>
</g>
<g id="Line" style="mix-blend-mode:normal;" figma:type="vector">
<use xlink:href="#path2_stroke" transform="matrix(0.739441 0.673222 0.673222 -0.73944 464.92 218.83)" fill="#FFFFFF" style="mix-blend-mode:normal;"/>
</g>
<g id="Line" style="mix-blend-mode:normal;" figma:type="vector">
<use xlink:href="#path3_stroke" transform="matrix(-0.739441 0.673222 -0.673222 -0.73944 731.93 219.963)" fill="#FFFFFF" style="mix-blend-mode:normal;"/>
</g>
<g id="Line" style="mix-blend-mode:normal;" figma:type="vector">
<use xlink:href="#path3_stroke" transform="matrix(0.739441 0.673222 0.673222 -0.73944 713.42 219.963)" fill="#FFFFFF" style="mix-blend-mode:normal;"/>
</g>
<g id="Line" style="mix-blend-mode:normal;" figma:type="vector">
<use xlink:href="#path0_stroke" transform="matrix(0.739441 0.673222 0.673222 -0.73944 588.895 69.0848)" fill="#FFFFFF" style="mix-blend-mode:normal;"/>
</g>
<g id="Ellipse" style="mix-blend-mode:normal;" figma:type="ellipse">
<use xlink:href="#path4_fill" transform="translate(761.5 290.66)" fill="#00D8FF" style="mix-blend-mode:normal;"/>
</g>
<g id="Ellipse" style="mix-blend-mode:normal;" figma:type="ellipse">
<use xlink:href="#path5_fill" transform="translate(569 -2)" fill="#0CE8CE" style="mix-blend-mode:normal;"/>
</g>
<g id="Ellipse" style="mix-blend-mode:normal;" figma:type="ellipse">
<use xlink:href="#path4_fill" transform="translate(444 148)" fill="#00D8FF" style="mix-blend-mode:normal;"/>
</g>
<g id="Ellipse" style="mix-blend-mode:normal;" figma:type="ellipse">
<use xlink:href="#path4_fill" transform="translate(693 148)" fill="#0CE8CE" style="mix-blend-mode:normal;"/>
</g>
<g id="Ellipse" style="mix-blend-mode:normal;" figma:type="ellipse">
<use xlink:href="#path4_fill" transform="translate(376 289.527)" fill="#00D8FF" style="mix-blend-mode:normal;"/>
</g>
<g id="Ellipse" style="mix-blend-mode:normal;" figma:type="ellipse">
<use xlink:href="#path4_fill" transform="translate(513 289.527)" fill="#00D8FF" style="mix-blend-mode:normal;"/>
</g>
<g id="Ellipse" style="mix-blend-mode:normal;" figma:type="ellipse">
<use xlink:href="#path4_fill" transform="translate(624.5 290.66)" fill="#0CE8CE" style="mix-blend-mode:normal;"/>
</g>
</g>
</g>
<defs>
<path id="path0_stroke" d="M -1.8486 13.3078L -3.53166 15.1564L 0.165546 18.5225L 1.8486 16.6739L -1.8486 13.3078ZM 153.456 34.3432L 155.139 32.4946L 151.442 29.1285L 149.759 30.9771L 153.456 34.3432ZM 1.8486 16.6739C 8.45668 9.41586 14.6377 5.41742 20.4435 3.64395C 26.3479 1.79671 31.7413 2.19596 37.4845 4.11218C 48.9974 7.91259 60.2061 17.7463 72.1614 27.9457C 83.8552 37.9221 96.2649 48.2423 109.693 51.663C 116.386 53.3471 123.71 53.2949 130.982 50.6884C 138.322 48.0178 145.778 42.7759 153.456 34.3432L 149.759 30.9771C 142.457 38.997 135.646 43.6706 129.272 45.9897C 122.83 48.3729 116.996 48.3845 110.927 46.8177C 98.8315 43.7365 87.3088 34.2961 75.4066 24.1419C 63.766 14.211 51.7155 3.54448 39.0518 -0.635821C 32.7066 -2.70996 25.7823 -3.1712 18.9829 -1.13793C 12.085 0.969108 5.17606 5.59219 -1.8486 13.3078L 1.8486 16.6739Z"/>
<path id="path1_stroke" d="M -1.8486 12.454L -3.53166 14.3026L 0.165546 17.6687L 1.8486 15.8201L -1.8486 12.454ZM 106.343 1.9241L 108.026 0.0755005L 104.329 -3.29061L 102.646 -1.44201L 106.343 1.9241ZM 1.8486 15.8201C 11.5343 5.18172 19.7236 2.22816 27.1037 2.51924C 34.7606 2.82125 42.0064 6.58277 50.0138 10.6335C 57.7962 14.5704 66.2769 18.7601 75.657 18.6772C 85.2372 18.5926 95.2608 14.0964 106.343 1.9241L 102.646 -1.44201C 92.1851 10.0477 83.3928 13.6087 75.6128 13.6774C 67.6326 13.748 60.2088 10.1875 52.2708 6.17186C 44.5578 2.27006 36.2673 -2.12321 27.3007 -2.47687C 18.0572 -2.84146 8.53556 1.04842 -1.8486 12.454L 1.8486 15.8201Z"/>
<path id="path2_stroke" d="M -1.8486 12.454L -3.53166 14.3026L 0.165546 17.6687L 1.8486 15.8201L -1.8486 12.454ZM 106.343 1.9241L 108.026 0.0755006L 104.329 -3.29061L 102.646 -1.44201L 106.343 1.9241ZM 1.8486 15.8201C 11.5343 5.18172 19.7236 2.22816 27.1037 2.51924C 34.7606 2.82125 42.0064 6.58277 50.0138 10.6335C 57.7962 14.5704 66.2769 18.7601 75.657 18.6772C 85.2373 18.5926 95.2608 14.0964 106.343 1.9241L 102.646 -1.44201C 92.1851 10.0477 83.3928 13.6087 75.6128 13.6774C 67.6326 13.748 60.2088 10.1875 52.2708 6.17186C 44.5578 2.27006 36.2674 -2.12321 27.3007 -2.47687C 18.0572 -2.84146 8.53556 1.04842 -1.8486 12.454L 1.8486 15.8201Z"/>
<path id="path3_stroke" d="M -1.8486 12.454L -3.53166 14.3026L 0.165546 17.6687L 1.8486 15.8201L -1.8486 12.454ZM 106.343 1.9241L 108.026 0.0755006L 104.329 -3.29061L 102.646 -1.44201L 106.343 1.9241ZM 1.8486 15.8201C 11.5343 5.18172 19.7236 2.22816 27.1037 2.51924C 34.7606 2.82125 42.0064 6.58277 50.0138 10.6335C 57.7962 14.5704 66.2769 18.7601 75.657 18.6772C 85.2373 18.5926 95.2608 14.0964 106.343 1.9241L 102.646 -1.44201C 92.1851 10.0477 83.3928 13.6087 75.6128 13.6774C 67.6326 13.748 60.2088 10.1875 52.2708 6.17186C 44.5578 2.27006 36.2674 -2.12321 27.3007 -2.47687C 18.0572 -2.84146 8.53556 1.04842 -1.8486 12.454L 1.8486 15.8201Z"/>
<path id="path4_fill" d="M 60 30C 60 46.5685 46.5685 60 30 60C 13.4315 60 0 46.5685 0 30C 0 13.4315 13.4315 0 30 0C 46.5685 0 60 13.4315 60 30Z"/>
<path id="path5_fill" d="M 60 30C 60 46.5685 46.5685 60 30 60C 13.4315 60 0 46.5685 0 30C 0 13.4315 13.4315 0 30 0C 46.5685 0 60 13.4315 60 30Z"/>
</defs>
</svg>
