<svg width="522" height="422" viewBox="0 0 522 422" version="2.0" xmlns="http://www.w3.org/2000/svg" xmlns:xlink="http://www.w3.org/1999/xlink" xmlns:figma="http://www.figma.com/figma/ns">
<title>treeHierarchyUpdated</title>
<desc>Created using Figma 0.90</desc>
<g id="Canvas" transform="translate(-334 34)" figma:type="canvas">
<mask id="mask0_outline" mask-type="alpha">
<path d="M 334 -34L 856 -34L 856 388L 334 388L 334 -34Z" fill="#FFFFFF"/>
</mask>
<g id="treeHierarchyUpdated" style="mix-blend-mode:normal;" mask="url(#mask0_outline)" figma:type="frame">
<g id="Line" style="mix-blend-mode:normal;" figma:type="vector">
<use xlink:href="#path0_stroke" transform="matrix(-0.739441 0.673222 -0.673222 -0.73944 609.092 69.0848)" fill="#FFFFFF" style="mix-blend-mode:normal;"/>
</g>
<g id="Line" style="mix-blend-mode:normal;" figma:type="vector">
<use xlink:href="#path1_stroke" transform="matrix(-0.73944 0.673222 -0.673222 -0.739441 483.43 218.83)" fill="#FFFFFF" style="mix-blend-mode:normal;"/>
</g>
<g id="Line" style="mix-blend-mode:normal;" figma:type="vector">
<use xlink:href="#path2_stroke" transform="matrix(0.739441 0.673222 0.673222 -0.73944 464.92 218.83)" fill="#FFFFFF" style="mix-blend-mode:normal;"/>
</g>
<g id="Line" style="mix-blend-mode:normal;" figma:type="vector">
<use xlink:href="#path2_stroke" transform="matrix(-0.739441 0.673222 -0.673222 -0.73944 731.93 219.963)" fill="#FFFFFF" style="mix-blend-mode:normal;"/>
</g>
<g id="Line" style="mix-blend-mode:normal;" figma:type="vector">
<use xlink:href="#path2_stroke" transform="matrix(0.739441 0.673222 0.673222 -0.73944 713.42 219.963)" fill="#FFFFFF" style="mix-blend-mode:normal;"/>
</g>
<g id="Line" style="mix-blend-mode:normal;" figma:type="vector">
<use xlink:href="#path0_stroke" transform="matrix(0.739441 0.673222 0.673222 -0.73944 588.895 69.0848)" fill="#FFFFFF" style="mix-blend-mode:normal;"/>
</g>
<g id="Ellipse" style="mix-blend-mode:normal;" figma:type="ellipse">
<use xlink:href="#path3_fill" transform="translate(761.5 290.66)" fill="#00D8FF" style="mix-blend-mode:normal;"/>
</g>
<g id="Ellipse" style="mix-blend-mode:normal;" figma:type="ellipse">
<use xlink:href="#path3_fill" transform="translate(569 -2)" fill="#F2C94C" style="mix-blend-mode:normal;"/>
</g>
<g id="Ellipse" style="mix-blend-mode:normal;" figma:type="ellipse">
<use xlink:href="#path3_fill" transform="translate(444 148)" fill="#00D8FF" style="mix-blend-mode:normal;"/>
</g>
<g id="Ellipse" style="mix-blend-mode:normal;" figma:type="ellipse">
<use xlink:href="#path3_fill" transform="translate(693 148)" fill="#00D8FF" style="mix-blend-mode:normal;"/>
</g>
<g id="Ellipse" style="mix-blend-mode:normal;" figma:type="ellipse">
<use xlink:href="#path4_fill" transform="translate(579 8)" fill="#EB5757" style="mix-blend-mode:normal;"/>
</g>
<g id="Ellipse" style="mix-blend-mode:normal;" figma:type="ellipse">
<use xlink:href="#path5_fill" transform="translate(589 18)" fill="#9B51E0" style="mix-blend-mode:normal;"/>
</g>
<g id="Ellipse" style="mix-blend-mode:normal;" figma:type="ellipse">
<use xlink:href="#path4_fill" transform="translate(703 158)" fill="#EB5757" style="mix-blend-mode:normal;"/>
</g>
<g id="Ellipse" style="mix-blend-mode:normal;" figma:type="ellipse">
<use xlink:href="#path3_fill" transform="translate(376 289.527)" fill="#00D8FF" style="mix-blend-mode:normal;"/>
</g>
<g id="Ellipse" style="mix-blend-mode:normal;" figma:type="ellipse">
<use xlink:href="#path3_fill" transform="translate(513 289.527)" fill="#00D8FF" style="mix-blend-mode:normal;"/>
</g>
<g id="Ellipse" style="mix-blend-mode:normal;" figma:type="ellipse">
<use xlink:href="#path3_fill" transform="translate(624.5 290.66)" fill="#00D8FF" style="mix-blend-mode:normal;"/>
</g>
<g id="Vector 2" style="mix-blend-mode:normal;" figma:type="vector">
<use xlink:href="#path6_stroke" transform="translate(656 10.6738)" fill="#FFFFFF" style="mix-blend-mode:normal;"/>
</g>
<g id="Vector 2" style="mix-blend-mode:normal;" figma:type="vector">
<use xlink:href="#path7_stroke" transform="matrix(-0.980057 0.198718 0.198718 0.980057 668.376 172.267)" fill="#FFFFFF" style="mix-blend-mode:normal;"/>
</g>
<g id="Ellipse" style="mix-blend-mode:normal;" figma:type="ellipse">
<use xlink:href="#path5_fill" transform="translate(713 168)" fill="#9B51E0" style="mix-blend-mode:normal;"/>
</g>
<g id="Ellipse" style="mix-blend-mode:normal;" figma:type="ellipse">
<use xlink:href="#path5_fill" transform="translate(644.5 310.66)" fill="#9B51E0" style="mix-blend-mode:normal;"/>
</g>
</g>
</g>
<defs>
<path id="path0_stroke" d="M -1.8486 13.3078L -3.53166 15.1564L 0.165546 18.5225L 1.8486 16.6739L -1.8486 13.3078ZM 153.456 34.3432L 155.139 32.4946L 151.442 29.1285L 149.759 30.9771L 153.456 34.3432ZM 1.8486 16.6739C 8.45668 9.41586 14.6377 5.41742 20.4435 3.64395C 26.3479 1.79671 31.7413 2.19596 37.4845 4.11218C 48.9974 7.91259 60.2061 17.7463 72.1614 27.9457C 83.8552 37.9221 96.2649 48.2423 109.693 51.663C 116.386 53.3471 123.71 53.2949 130.982 50.6884C 138.322 48.0178 145.778 42.7759 153.456 34.3432L 149.759 30.9771C 142.457 38.997 135.646 43.6706 129.272 45.9897C 122.83 48.3729 116.996 48.3845 110.927 46.8177C 98.8315 43.7365 87.3088 34.2961 75.4066 24.1419C 63.766 14.211 51.7155 3.54448 39.0518 -0.63582C 32.7066 -2.70996 25.7823 -3.1712 18.9829 -1.13793C 12.085 0.969108 5.17606 5.59219 -1.8486 13.3078L 1.8486 16.6739Z"/>
<path id="path1_stroke" d="M -1.8486 12.454L -3.53166 14.3026L 0.165546 17.6687L 1.8486 15.8201L -1.8486 12.454ZM 106.343 1.9241L 108.026 0.0755005L 104.329 -3.29061L 102.646 -1.44201L 106.343 1.9241ZM 1.8486 15.8201C 11.5343 5.18172 19.7236 2.22816 27.1037 2.51924C 34.7606 2.82125 42.0064 6.58277 50.0138 10.6335C 57.7962 14.5704 66.2769 18.7601 75.657 18.6772C 85.2372 18.5926 95.2608 14.0964 106.343 1.9241L 102.646 -1.44201C 92.1851 10.0477 83.3928 13.6087 75.6128 13.6774C 67.6326 13.748 60.2088 10.1875 52.2708 6.17186C 44.5578 2.27006 36.2673 -2.12321 27.3007 -2.47687C 18.0572 -2.84146 8.53556 1.04842 -1.8486 12.454L 1.8486 15.8201Z"/>
<path id="path2_stroke" d="M -1.8486 12.454L -3.53166 14.3026L 0.165546 17.6687L 1.8486 15.8201L -1.8486 12.454ZM 106.343 1.9241L 108.026 0.0755006L 104.329 -3.29061L 102.646 -1.44201L 106.343 1.9241ZM 1.8486 15.8201C 11.5343 5.18172 19.7236 2.22816 27.1037 2.51924C 34.7606 2.82125 42.0064 6.58277 50.0138 10.6335C 57.7962 14.5704 66.2769 18.7601 75.657 18.6772C 85.2373 18.5926 95.2608 14.0964 106.343 1.9241L 102.646 -1.44201C 92.1851 10.0477 83.3928 13.6087 75.6128 13.6774C 67.6326 13.748 60.2088 10.1875 52.2708 6.17186C 44.5578 2.27006 36.2674 -2.12321 27.3007 -2.47687C 18.0572 -2.84146 8.53556 1.04842 -1.8486 12.454L 1.8486 15.8201Z"/>
<path id="path3_fill" d="M 60 30C 60 46.5685 46.5685 60 30 60C 13.4315 60 0 46.5685 0 30C 0 13.4315 13.4315 0 30 0C 46.5685 0 60 13.4315 60 30Z"/>
<path id="path4_fill" d="M 40 20C 40 31.0457 31.0457 40 20 40C 8.95431 40 0 31.0457 0 20C 0 8.95431 8.95431 0 20 0C 31.0457 0 40 8.95431 40 20Z"/>
<path id="path5_fill" d="M 20 10C 20 15.5228 15.5228 20 10 20C 4.47715 20 0 15.5228 0 10C 0 4.47715 4.47715 0 10 0C 15.5228 0 20 4.47715 20 10Z"/>
<path id="path6_stroke" d="M -0.763873 0.772912L -3.14431 1.53678L -1.61657 6.29767L 0.763873 5.53379L -0.763873 0.772912ZM 113 125.653L 110.5 125.653L 110.5 129.044L 113.739 128.042L 113 125.653ZM 115.5 103.153L 115.5 100.653L 110.5 100.653L 110.5 103.153L 115.5 103.153ZM 134.739 121.542L 137.127 120.802L 135.649 116.026L 133.261 116.765L 134.739 121.542ZM 0.763873 5.53379C 32.9947 -4.80893 73.5535 12.5421 99.7151 39.2186C 112.738 52.4982 121.91 67.8253 124.667 82.7128C 127.401 97.4737 123.865 111.889 111.279 123.84L 114.721 127.466C 128.635 114.255 132.599 98.0876 129.583 81.8022C 126.59 65.6434 116.762 49.4597 103.285 35.7177C 76.4465 8.351 34.0053 -10.3844 -0.763873 0.772912L 0.763873 5.53379ZM 115.5 125.653L 115.5 103.153L 110.5 103.153L 110.5 125.653L 115.5 125.653ZM 113.739 128.042L 134.739 121.542L 133.261 116.765L 112.261 123.265L 113.739 128.042Z"/>
<path id="path7_stroke" d="M -0.760637 0.0778973L -3.14211 0.838534L -1.62084 5.60149L 0.760637 4.84085L -0.760637 0.0778973ZM 88.5448 98L 86.0448 98L 86.0448 101.386L 89.2808 100.389L 88.5448 98ZM 91.0448 80.4517L 91.0448 77.9517L 86.0448 77.9517L 86.0448 80.4517L 91.0448 80.4517ZM 105.736 95.3197L 108.125 94.5836L 106.653 89.8053L 104.264 90.5413L 105.736 95.3197ZM 0.760637 4.84085C 25.7477 -3.13996 57.3283 10.2477 77.7528 30.9769C 87.9083 41.284 95.021 53.1432 97.1551 64.6119C 99.2651 75.9518 96.5446 86.9992 86.8275 96.1831L 90.262 99.8169C 101.31 89.3751 104.466 76.5711 102.071 63.6972C 99.6991 50.9522 91.9238 38.2354 81.3144 27.4677C 60.209 6.04737 26.7523 -8.70964 -0.760637 0.0778973L 0.760637 4.84085ZM 91.0448 98L 91.0448 80.4517L 86.0448 80.4517L 86.0448 98L 91.0448 98ZM 89.2808 100.389L 105.736 95.3197L 104.264 90.5413L 87.8087 95.6108L 89.2808 100.389Z"/>
</defs>
</svg>
